<?xml version="1.0" encoding="UTF-8" standalone="no"?>
<svg
   width="182"
   height="191"
   viewBox="0 0 182 191"
   fill="none"
   version="1.1"
   id="svg3"
   xmlns="http://www.w3.org/2000/svg"
   xmlns:svg="http://www.w3.org/2000/svg">
  <path
     fill-rule="evenodd"
     clip-rule="evenodd"
     d="m 0,0 50.96,46.8491 h 80.08 L 182,0 V 140.547 C 182,168.411 159.184,191 131.04,191 H 50.96 C 22.816,191 0,168.411 0,140.547 Z m 64.913,100.906 c -3.685,0 -6.673,2.958 -6.673,6.607 v 14.415 c 0,3.649 2.988,6.607 6.673,6.607 3.686,0 6.674,-2.958 6.674,-6.607 v -14.415 c 0,-3.649 -2.988,-6.607 -6.674,-6.607 z m 52.174,0 c -3.686,0 -6.674,2.958 -6.674,6.607 v 14.415 c 0,3.649 2.988,6.607 6.674,6.607 3.685,0 6.673,-2.958 6.673,-6.607 v -14.415 c 0,-3.649 -2.988,-6.607 -6.673,-6.607 z M 98.28,145.352 c 0,3.981 -3.259,7.208 -7.28,7.208 -4.021,0 -7.28,-3.227 -7.28,-7.208 0,-3.98 3.259,-7.207 7.28,-7.207 4.021,0 7.28,3.227 7.28,7.207 z"
     fill="url(#paint0_linear_12_109)"
     id="path2"
     style="fill:url(#paint0_linear_12_109)" />
  <defs
     id="defs3">
    <linearGradient
       id="paint0_linear_12_109"
       x1="205"
       y1="0"
       x2="205"
       y2="191"
       gradientUnits="userSpaceOnUse"
       gradientTransform="translate(-114)">
      <stop
         stop-color="#00FFB3"
         id="stop2" />
      <stop
         offset="1"
         stop-color="#00E07F"
         id="stop3" />
    </linearGradient>
  </defs>
</svg>
