<?xml version="1.0" encoding="UTF-8" standalone="no"?>
<!-- Created with Inkscape (http://www.inkscape.org/) -->

<svg
   width="265.79565"
   height="359.42303"
   viewBox="0 0 265.79565 359.42303"
   version="1.1"
   id="svg1"
   xmlns="http://www.w3.org/2000/svg"
   xmlns:svg="http://www.w3.org/2000/svg">
  <defs
     id="defs1" />
  <g
     id="layer1"
     transform="translate(-536.09419,-160.58418)">
    <path
       style="fill:none;fill-opacity:1;stroke:#292929;stroke-width:0.529001;stroke-linecap:round;stroke-linejoin:round;stroke-dasharray:none;stroke-opacity:1;paint-order:normal"
       d="m 596.1371,160.84869 v 149.53917 c 0,4.414 3.31173,7.47695 7.4723,7.47695 h 59.77841 c 4.65944,0 7.4723,-2.8146 7.4723,-7.47695 v -29.90784 c 0,-4.88621 2.93114,-7.47695 7.4723,-7.47695 h 37.36151 c 4.65796,0 7.4723,2.16865 7.4723,7.47695 v 29.90784 33.64631 l -14.94461,3.73848 c -2.98615,-9.76699 -7.10621,-19.75011 7.47231,-26.16936 l 74.723,26.16936 11.20845,-22.43088 -37.3615,-11.21543 c 0,0 -11.0467,9.53031 -11.20845,33.64631 v 89.7235 c 0,9.96927 -4.98155,14.95392 -14.9446,14.95392 h -59.77841 c -9.96305,0 -14.9446,-4.98465 -14.9446,-14.95392 V 392.6344 c 0,-4.97407 -2.50133,-7.47696 -7.4723,-7.47696 h -22.4169 c 0,19.93857 -9.96306,29.90784 -29.88921,29.90784 -14.9446,0 -24.90765,-9.96927 -29.8892,-29.90784 H 543.831 c -4.24461,0 -7.4723,2.41281 -7.4723,7.47696 v 67.29263 3.73847 h 89.66761 c 6.0619,0.11438 9.02481,1.75716 11.20845,3.73848 18.68075,16.94999 18.68075,52.33871 18.68075,52.33871"
       id="path69" />
  </g>
</svg>
