<?xml version="1.0" encoding="UTF-8" standalone="no"?>
<!-- Created with Inkscape (http://www.inkscape.org/) -->

<svg
   width="247.11493"
   height="336.99213"
   viewBox="0 0 247.11493 336.99213"
   version="1.1"
   id="svg1"
   xmlns="http://www.w3.org/2000/svg"
   xmlns:svg="http://www.w3.org/2000/svg">
  <defs
     id="defs1" />
  <g
     id="layer1"
     transform="translate(-536.09418,-183.01506)">
    <path
       style="fill:none;fill-opacity:1;stroke:#292929;stroke-width:0.529001;stroke-linecap:round;stroke-linejoin:round;stroke-dasharray:none;stroke-opacity:1;paint-order:normal"
       d="m 782.94462,183.27956 v 134.58525 33.64632 l -27.32602,-35.12225 -22.4046,31.38377 -39.93699,-18.6924 c 0,0 59.94016,-5.4236 59.77841,18.6924 v 89.7235 c 0,9.96927 -4.98155,14.95392 -14.9446,14.95392 h -59.77841 c -9.96305,0 -14.9446,-4.98465 -14.9446,-14.95392 V 392.6344 c 0,-4.97407 -2.50133,-7.47696 -7.4723,-7.47696 h -22.4169 c 0,19.93857 -9.96306,29.90784 -29.88921,29.90784 -14.9446,0 -24.90765,-9.96927 -29.8892,-29.90784 H 543.831 c -4.24461,0 -7.4723,2.41281 -7.4723,7.47696 v 67.29263 3.73847 h 89.66761 c 6.0619,0.11438 9.02481,1.75716 11.20845,3.73848 18.68075,16.94999 18.68075,52.33871 18.68075,52.33871"
       id="path70" />
  </g>
</svg>
