<svg width="486" height="149" viewBox="0 0 486 149" fill="none" xmlns="http://www.w3.org/2000/svg">
<path d="M153.519 101.021V40.2206H165.039V101.021H153.519ZM165.039 66.3326L160.687 64.4126C160.687 56.6473 162.479 50.4606 166.063 45.8526C169.647 41.2446 174.81 38.9406 181.551 38.9406C184.623 38.9406 187.397 39.4953 189.871 40.6046C192.346 41.6286 194.65 43.378 196.783 45.8526L189.231 53.6606C187.951 52.2953 186.543 51.314 185.007 50.7166C183.471 50.1193 181.679 49.8206 179.631 49.8206C175.365 49.8206 171.866 51.186 169.135 53.9166C166.405 56.6473 165.039 60.786 165.039 66.3326ZM222.847 102.301C219.434 102.301 216.191 101.874 213.119 101.021C210.133 100.082 207.359 98.802 204.799 97.1806C202.239 95.474 200.021 93.4686 198.143 91.1646L205.567 83.7406C207.786 86.4713 210.346 88.5193 213.247 89.8846C216.149 91.1646 219.391 91.8046 222.975 91.8046C226.559 91.8046 229.333 91.2073 231.295 90.0126C233.258 88.7326 234.239 86.9833 234.239 84.7646C234.239 82.546 233.429 80.8393 231.807 79.6446C230.271 78.3646 228.266 77.3406 225.791 76.5726C223.317 75.7193 220.671 74.9086 217.855 74.1406C215.125 73.2873 212.522 72.2206 210.047 70.9406C207.573 69.6606 205.525 67.9113 203.903 65.6926C202.367 63.474 201.599 60.53 201.599 56.8606C201.599 53.1913 202.495 50.034 204.287 47.3886C206.079 44.658 208.554 42.5673 211.711 41.1166C214.954 39.666 218.837 38.9406 223.359 38.9406C228.138 38.9406 232.362 39.794 236.031 41.5006C239.786 43.122 242.858 45.5966 245.247 48.9246L237.823 56.3486C236.117 54.13 233.983 52.4233 231.423 51.2286C228.949 50.034 226.133 49.4366 222.975 49.4366C219.647 49.4366 217.087 50.034 215.295 51.2286C213.589 52.338 212.735 53.9166 212.735 55.9646C212.735 58.0126 213.503 59.5913 215.039 60.7006C216.575 61.81 218.581 62.7486 221.055 63.5166C223.615 64.2846 226.261 65.0953 228.991 65.9486C231.722 66.7166 234.325 67.7833 236.799 69.1486C239.274 70.514 241.279 72.3486 242.815 74.6526C244.437 76.9566 245.247 79.986 245.247 83.7406C245.247 89.458 243.199 93.9806 239.103 97.3086C235.093 100.637 229.674 102.301 222.847 102.301ZM267.488 101.021V14.7486H279.008V101.021H267.488ZM252.512 50.7166V40.2206H293.984V50.7166H252.512ZM331.17 102.301C325.197 102.301 319.821 100.893 315.042 98.0766C310.264 95.2606 306.466 91.4633 303.65 86.6846C300.834 81.8206 299.426 76.402 299.426 70.4286C299.426 64.5406 300.834 59.25 303.65 54.5566C306.466 49.778 310.264 45.9806 315.042 43.1646C319.821 40.3486 325.197 38.9406 331.17 38.9406C337.058 38.9406 342.392 40.3486 347.17 43.1646C352.034 45.8953 355.874 49.65 358.69 54.4286C361.506 59.2073 362.914 64.5406 362.914 70.4286C362.914 76.402 361.506 81.8206 358.69 86.6846C355.874 91.4633 352.034 95.2606 347.17 98.0766C342.392 100.893 337.058 102.301 331.17 102.301ZM331.17 91.1646C335.01 91.1646 338.424 90.2686 341.41 88.4766C344.397 86.6846 346.744 84.2526 348.45 81.1806C350.157 78.0233 351.01 74.4393 351.01 70.4286C351.01 66.5033 350.114 63.0046 348.322 59.9326C346.616 56.8606 344.269 54.4713 341.282 52.7646C338.381 50.9726 335.01 50.0766 331.17 50.0766C327.33 50.0766 323.917 50.9726 320.93 52.7646C317.944 54.4713 315.597 56.8606 313.89 59.9326C312.184 63.0046 311.33 66.5033 311.33 70.4286C311.33 74.4393 312.184 78.0233 313.89 81.1806C315.597 84.2526 317.944 86.6846 320.93 88.4766C323.917 90.2686 327.33 91.1646 331.17 91.1646ZM375.894 101.021V40.2206H387.414V101.021H375.894ZM387.414 66.3326L383.062 64.4126C383.062 56.6473 384.854 50.4606 388.438 45.8526C392.022 41.2446 397.185 38.9406 403.926 38.9406C406.998 38.9406 409.772 39.4953 412.246 40.6046C414.721 41.6286 417.025 43.378 419.158 45.8526L411.606 53.6606C410.326 52.2953 408.918 51.314 407.382 50.7166C405.846 50.1193 404.054 49.8206 402.006 49.8206C397.74 49.8206 394.241 51.186 391.51 53.9166C388.78 56.6473 387.414 60.786 387.414 66.3326ZM453.429 102.301C447.371 102.301 441.909 100.935 437.045 98.2046C432.181 95.3886 428.341 91.5913 425.525 86.8126C422.709 82.034 421.301 76.6153 421.301 70.5566C421.301 64.5833 422.667 59.2073 425.397 54.4286C428.213 49.65 431.968 45.8953 436.661 43.1646C441.44 40.3486 446.773 38.9406 452.661 38.9406C458.293 38.9406 463.243 40.2206 467.509 42.7806C471.861 45.3406 475.232 48.882 477.621 53.4046C480.096 57.9273 481.333 63.0473 481.333 68.7646C481.333 69.618 481.291 70.5566 481.205 71.5806C481.12 72.5193 480.949 73.6286 480.693 74.9086H429.365V65.3086H474.549L470.325 69.0206C470.325 64.9246 469.6 61.4686 468.149 58.6526C466.699 55.7513 464.651 53.5326 462.005 51.9966C459.36 50.3753 456.16 49.5646 452.405 49.5646C448.48 49.5646 445.024 50.418 442.037 52.1246C439.051 53.8313 436.747 56.2206 435.125 59.2926C433.504 62.3646 432.693 65.9913 432.693 70.1726C432.693 74.4393 433.547 78.194 435.253 81.4366C436.96 84.594 439.392 87.0686 442.549 88.8606C445.707 90.5673 449.333 91.4206 453.429 91.4206C456.843 91.4206 459.957 90.8233 462.773 89.6286C465.675 88.434 468.149 86.642 470.197 84.2526L477.621 91.8046C474.72 95.218 471.136 97.8206 466.869 99.6126C462.688 101.405 458.208 102.301 453.429 102.301Z" fill="white"/>
<path d="M25.6031 25.596L32.4091 27.3365L94.3415 106.286L69.2924 141.857L17.6007 76.6552C0.833869 55.2308 8.72322 46.2952 15.7938 42.4006L25.6031 25.596Z" fill="url(#paint0_linear_9_30)"/>
<path d="M94.5449 6.21057L94.5441 43.0527L27.9092 43.0527C20.379 43.2644 11.0986 42.5526 8.18636 50.9598L19.1672 19.2324C22.6651 9.0147 26.1879 6.21056 38.2012 6.21056L94.5449 6.21057Z" fill="#00FF62"/>
<defs>
<linearGradient id="paint0_linear_9_30" x1="17.3625" y1="30.1351" x2="76.6643" y2="137.796" gradientUnits="userSpaceOnUse">
<stop stop-color="#006125"/>
<stop offset="0.514535" stop-color="#00D351"/>
</linearGradient>
</defs>
</svg>
