<?xml version="1.0" encoding="UTF-8" standalone="no"?>
<svg
   width="200"
   height="200"
   viewBox="0 0 200 200"
   fill="none"
   version="1.1"
   id="svg1"
   xmlns="http://www.w3.org/2000/svg"
   xmlns:svg="http://www.w3.org/2000/svg">
  <defs
     id="defs1" />
  <path
     d="m 112.20164,165.24587 h 74.34852 c 2.36138,0 4.68152,-0.60264 6.72641,-1.74819 2.04521,-1.14521 3.74322,-2.79274 4.92343,-4.77689 1.1802,-1.98383 1.80098,-4.23433 1.8,-6.52476 -9.9e-4,-2.29075 -0.62377,-4.54058 -1.80595,-6.52343 L 148.26369,61.785148 c -1.1802,-1.983499 -2.87788,-3.630628 -4.92244,-4.775842 -2.04456,-1.145215 -4.36402,-1.748152 -6.72508,-1.748152 -2.36105,0 -4.6802,0.602937 -6.72508,1.748152 -2.04456,1.145214 -3.74225,2.792343 -4.92245,4.775842 l -12.767,21.463695 -24.961378,-41.971682 c -1.181189,-1.983333 -2.879539,-3.630237 -4.924753,-4.775247 -2.045214,-1.145007 -4.365017,-1.747789 -6.726403,-1.747789 -2.361386,0 -4.681188,0.602782 -6.726403,1.747789 -2.045214,1.14501 -3.743563,2.791914 -4.924751,4.775247 L 1.8058871,145.6726 C 0.6238707,147.65544 0.00102816,149.90528 6.9402867e-7,152.19603 -0.00102678,154.48646 0.61979809,156.73696 1.8000324,158.72079 c 1.1802343,1.98415 2.8782507,3.63168 4.9233002,4.77689 2.0450165,1.14555 4.3649504,1.74819 6.7264344,1.74819 h 46.669702 c 18.491089,0 32.127723,-7.87855 41.510891,-23.24918 l 22.78053,-38.26798 12.20165,-20.479867 36.62013,61.516827 h -48.82178 z m -52.842897,-20.50099 -32.569602,-0.007 48.821748,-82.017743 24.360065,41.008843 -16.310231,27.40957 c -6.231353,9.97294 -13.31023,13.6066 -24.30198,13.6066 z"
     fill="#00dc82"
     id="path1"
     style="stroke-width:3.30033" />
</svg>
