<svg width="486" height="148" viewBox="0 0 486 148" fill="none" xmlns="http://www.w3.org/2000/svg">
<path d="M153.519 101V40.2H165.039V101H153.519ZM165.039 66.312L160.687 64.392C160.687 56.6267 162.479 50.44 166.063 45.832C169.647 41.224 174.81 38.92 181.551 38.92C184.623 38.92 187.397 39.4747 189.871 40.584C192.346 41.608 194.65 43.3573 196.783 45.832L189.231 53.64C187.951 52.2747 186.543 51.2933 185.007 50.696C183.471 50.0987 181.679 49.8 179.631 49.8C175.365 49.8 171.866 51.1653 169.135 53.896C166.405 56.6267 165.039 60.7653 165.039 66.312ZM222.847 102.28C219.434 102.28 216.191 101.853 213.119 101C210.133 100.061 207.359 98.7813 204.799 97.16C202.239 95.4533 200.021 93.448 198.143 91.144L205.567 83.72C207.786 86.4507 210.346 88.4987 213.247 89.864C216.149 91.144 219.391 91.784 222.975 91.784C226.559 91.784 229.333 91.1867 231.295 89.992C233.258 88.712 234.239 86.9627 234.239 84.744C234.239 82.5253 233.429 80.8187 231.807 79.624C230.271 78.344 228.266 77.32 225.791 76.552C223.317 75.6987 220.671 74.888 217.855 74.12C215.125 73.2667 212.522 72.2 210.047 70.92C207.573 69.64 205.525 67.8907 203.903 65.672C202.367 63.4533 201.599 60.5093 201.599 56.84C201.599 53.1707 202.495 50.0133 204.287 47.368C206.079 44.6373 208.554 42.5467 211.711 41.096C214.954 39.6453 218.837 38.92 223.359 38.92C228.138 38.92 232.362 39.7733 236.031 41.48C239.786 43.1013 242.858 45.576 245.247 48.904L237.823 56.328C236.117 54.1093 233.983 52.4027 231.423 51.208C228.949 50.0133 226.133 49.416 222.975 49.416C219.647 49.416 217.087 50.0133 215.295 51.208C213.589 52.3173 212.735 53.896 212.735 55.944C212.735 57.992 213.503 59.5707 215.039 60.68C216.575 61.7893 218.581 62.728 221.055 63.496C223.615 64.264 226.261 65.0747 228.991 65.928C231.722 66.696 234.325 67.7627 236.799 69.128C239.274 70.4933 241.279 72.328 242.815 74.632C244.437 76.936 245.247 79.9653 245.247 83.72C245.247 89.4373 243.199 93.96 239.103 97.288C235.093 100.616 229.674 102.28 222.847 102.28ZM267.488 101V14.728H279.008V101H267.488ZM252.512 50.696V40.2H293.984V50.696H252.512ZM331.17 102.28C325.197 102.28 319.821 100.872 315.042 98.056C310.264 95.24 306.466 91.4427 303.65 86.664C300.834 81.8 299.426 76.3813 299.426 70.408C299.426 64.52 300.834 59.2293 303.65 54.536C306.466 49.7573 310.264 45.96 315.042 43.144C319.821 40.328 325.197 38.92 331.17 38.92C337.058 38.92 342.392 40.328 347.17 43.144C352.034 45.8747 355.874 49.6293 358.69 54.408C361.506 59.1867 362.914 64.52 362.914 70.408C362.914 76.3813 361.506 81.8 358.69 86.664C355.874 91.4427 352.034 95.24 347.17 98.056C342.392 100.872 337.058 102.28 331.17 102.28ZM331.17 91.144C335.01 91.144 338.424 90.248 341.41 88.456C344.397 86.664 346.744 84.232 348.45 81.16C350.157 78.0027 351.01 74.4187 351.01 70.408C351.01 66.4827 350.114 62.984 348.322 59.912C346.616 56.84 344.269 54.4507 341.282 52.744C338.381 50.952 335.01 50.056 331.17 50.056C327.33 50.056 323.917 50.952 320.93 52.744C317.944 54.4507 315.597 56.84 313.89 59.912C312.184 62.984 311.33 66.4827 311.33 70.408C311.33 74.4187 312.184 78.0027 313.89 81.16C315.597 84.232 317.944 86.664 320.93 88.456C323.917 90.248 327.33 91.144 331.17 91.144ZM375.894 101V40.2H387.414V101H375.894ZM387.414 66.312L383.062 64.392C383.062 56.6267 384.854 50.44 388.438 45.832C392.022 41.224 397.185 38.92 403.926 38.92C406.998 38.92 409.772 39.4747 412.246 40.584C414.721 41.608 417.025 43.3573 419.158 45.832L411.606 53.64C410.326 52.2747 408.918 51.2933 407.382 50.696C405.846 50.0987 404.054 49.8 402.006 49.8C397.74 49.8 394.241 51.1653 391.51 53.896C388.78 56.6267 387.414 60.7653 387.414 66.312ZM453.429 102.28C447.371 102.28 441.909 100.915 437.045 98.184C432.181 95.368 428.341 91.5707 425.525 86.792C422.709 82.0133 421.301 76.5947 421.301 70.536C421.301 64.5627 422.667 59.1867 425.397 54.408C428.213 49.6293 431.968 45.8747 436.661 43.144C441.44 40.328 446.773 38.92 452.661 38.92C458.293 38.92 463.243 40.2 467.509 42.76C471.861 45.32 475.232 48.8613 477.621 53.384C480.096 57.9067 481.333 63.0267 481.333 68.744C481.333 69.5973 481.291 70.536 481.205 71.56C481.12 72.4987 480.949 73.608 480.693 74.888H429.365V65.288H474.549L470.325 69C470.325 64.904 469.6 61.448 468.149 58.632C466.699 55.7307 464.651 53.512 462.005 51.976C459.36 50.3547 456.16 49.544 452.405 49.544C448.48 49.544 445.024 50.3973 442.037 52.104C439.051 53.8107 436.747 56.2 435.125 59.272C433.504 62.344 432.693 65.9707 432.693 70.152C432.693 74.4187 433.547 78.1733 435.253 81.416C436.96 84.5733 439.392 87.048 442.549 88.84C445.707 90.5467 449.333 91.4 453.429 91.4C456.843 91.4 459.957 90.8027 462.773 89.608C465.675 88.4133 468.149 86.6213 470.197 84.232L477.621 91.784C474.72 95.1973 471.136 97.8 466.869 99.592C462.688 101.384 458.208 102.28 453.429 102.28Z" fill="black"/>
<path d="M25.6031 25.5753L32.4091 27.3159L94.3415 106.265L69.2924 141.836L17.6007 76.6346C0.833869 55.2102 8.72322 46.2746 15.7938 42.38L25.6031 25.5753Z" fill="url(#paint0_linear_9_57)"/>
<path d="M94.5449 6.18994L94.5441 43.032L27.9092 43.032C20.379 43.2437 11.0986 42.532 8.18636 50.9392L19.1672 19.2118C22.6651 8.99407 26.1879 6.18993 38.2012 6.18993L94.5449 6.18994Z" fill="#00FF62"/>
<defs>
<linearGradient id="paint0_linear_9_57" x1="17.3625" y1="30.1145" x2="76.6643" y2="137.775" gradientUnits="userSpaceOnUse">
<stop stop-color="#006125"/>
<stop offset="0.514535" stop-color="#00D351"/>
</linearGradient>
</defs>
</svg>
